<svg width="713" height="338" viewBox="0 0 713 338" fill="none" xmlns="http://www.w3.org/2000/svg">
<g clip-path="url(#clip0_11_799)">
<path d="M712.51 143.52C636.89 260.09 505.56 337.2 356.26 337.2C206.96 337.2 75.62 260.09 0 143.52H106.62C106.62 181.19 137.12 211.69 174.79 211.69C212.46 211.69 242.96 181.19 242.96 143.52H288.08C288.08 181.19 318.58 211.69 356.25 211.69C393.92 211.69 424.42 181.19 424.42 143.52H469.54C469.54 181.19 500.04 211.69 537.71 211.69C575.38 211.69 605.88 181.19 605.88 143.52H712.5H712.51Z" fill="white"/>
<path d="M424.43 143.52H288.09C288.09 105.85 318.59 75.35 356.26 75.35C393.93 75.35 424.43 105.85 424.43 143.52Z" fill="#78BA3A"/>
<path d="M242.96 143.52H106.62C106.62 105.85 137.12 75.35 174.79 75.35C212.46 75.35 242.96 105.85 242.96 143.52Z" fill="#78BA3A"/>
<path d="M605.89 143.52H469.55C469.55 105.85 500.05 75.35 537.72 75.35C575.39 75.35 605.89 105.85 605.89 143.52Z" fill="#78BA3A"/>
<path d="M174.79 54.26C189.774 54.26 201.92 42.1135 201.92 27.13C201.92 12.1465 189.774 0 174.79 0C159.807 0 147.66 12.1465 147.66 27.13C147.66 42.1135 159.807 54.26 174.79 54.26Z" fill="white"/>
<path d="M356.25 54.26C371.234 54.26 383.38 42.1135 383.38 27.13C383.38 12.1465 371.234 0 356.25 0C341.267 0 329.12 12.1465 329.12 27.13C329.12 42.1135 341.267 54.26 356.25 54.26Z" fill="white"/>
<path d="M537.72 54.26C552.703 54.26 564.85 42.1135 564.85 27.13C564.85 12.1465 552.703 0 537.72 0C522.736 0 510.59 12.1465 510.59 27.13C510.59 42.1135 522.736 54.26 537.72 54.26Z" fill="white"/>
</g>
<defs>
<clipPath id="clip0_11_799">
<rect width="712.51" height="337.2" fill="white"/>
</clipPath>
</defs>
</svg>
